<svg width="1024" height="1024" viewBox="0 -403 1024 1024" xmlns="http://www.w3.org/2000/svg" role="img" aria-label="Third Trail"><rect x="0" y="-403" width="1024" height="1024" fill="#FBFBFC"/>
  <g fill="none" stroke="#10131A" stroke-width="2" stroke-linecap="butt" stroke-opacity="0.55">
    <path vector-effect="non-scaling-stroke" d=" M 34.69 97.38   A 1.27 1.27 0.0 0 0 34.97 99.86   Q 37.28 100.08 39.25 99.78   Q 49.50 98.23 61.33 97.46   C 68.59 96.99 74.37 95.93 81.97 95.37   C 84.26 95.21 86.61 94.64 89.01 94.37   Q 114.14 91.48 131.84 89.63   C 136.74 89.12 142.37 87.60 147.93 87.34   C 152.29 87.13 155.44 86.17 159.13 85.93   Q 161.97 85.74 167.47 84.55   Q 170.38 83.91 174.82 83.59   Q 174.86 83.59 182.16 82.63   Q 192.69 81.25 205.54 79.37   Q 208.58 78.92 211.42 78.35   Q 214.41 77.75 217.34 77.41   Q 221.42 76.94 244.39 73.76   Q 250.18 72.95 255.19 72.19   Q 274.39 69.27 296.28 67.22   C 301.84 66.69 306.83 66.97 311.72 66.57   Q 317.72 66.09 323.28 66.49   Q 337.30 67.49 348.98 69.89   C 356.10 71.35 368.25 74.08 379.44 77.26   Q 392.77 81.05 401.46 82.28   Q 412.47 83.84 424.31 81.32   Q 436.41 78.75 445.43 75.38   C 456.77 71.14 464.95 68.38 474.42 64.20   Q 482.67 60.56 490.49 57.48   C 501.47 53.16 515.42 46.50 524.94 42.68   Q 536.56 38.00 545.64 33.87   Q 552.79 30.60 557.75 29.44   Q 565.15 27.71 570.52 28.03   Q 577.62 28.46 585.95 32.90   Q 592.47 36.38 594.83 37.38   Q 600.20 39.69 607.44 44.03   C 615.88 49.08 627.12 54.80 633.50 58.20   Q 647.54 65.69 666.90 73.83   Q 679.60 79.18 691.32 81.67   C 698.49 83.19 707.15 83.26 713.99 82.39   C 719.39 81.70 723.31 81.38 727.95 80.60   C 740.72 78.45 754.29 76.88 766.52 77.42   Q 784.22 78.21 801.12 80.37   Q 813.86 82.00 818.58 82.43   Q 825.67 83.06 829.94 83.66   Q 836.83 84.63 841.31 85.06   A 4.59 4.44 -32.0 0 1 842.34 85.28   Q 843.68 85.73 844.03 85.73   C 848.64 85.80 853.20 87.03 857.77 87.54   Q 879.23 89.91 886.74 91.11   Q 898.48 92.98 903.86 92.98   A 5.81 5.68 -36.6 0 1 905.54 93.21   C 909.04 94.21 913.49 93.87 917.41 94.39   Q 927.59 95.74 933.54 96.35   Q 934.74 96.47 935.97 96.67   Q 942.72 97.76 947.69 97.79   Q 950.45 97.80 952.16 98.15   C 955.82 98.90 959.40 98.46 963.34 99.01   Q 970.24 99.97 977.42 100.18   A 1.42 1.42 0.0 0 0 978.85 99.02   L 978.87 98.93   A 1.29 1.29 0.0 0 0 977.82 97.43   C 970.72 96.20 963.90 95.33 956.58 93.87   Q 950.36 92.63 928.83 88.82   Q 897.94 83.37 867.13 77.86   Q 859.56 76.50 848.51 74.90   Q 843.89 74.23 834.72 72.61   C 828.32 71.48 822.71 70.88 817.22 69.89   Q 812.17 68.97 782.59 65.23   C 776.82 64.49 769.97 64.18 766.17 63.90   C 758.70 63.36 751.93 64.16 744.53 64.17   Q 741.23 64.17 735.26 64.87   Q 720.14 66.63 712.78 67.16   Q 700.16 68.07 691.23 66.28   C 679.86 63.99 665.89 58.04 653.49 52.87   Q 646.74 50.05 641.53 47.45   Q 621.80 37.61 616.91 34.82   Q 598.80 24.50 588.97 19.51   Q 581.75 15.84 577.15 15.13   Q 568.49 13.80 560.64 14.80   Q 554.99 15.53 541.17 21.80   Q 538.66 22.93 509.15 36.05   C 500.41 39.93 491.31 43.16 483.49 46.53   Q 475.00 50.19 464.34 54.02   Q 445.38 60.81 444.94 60.95   Q 438.83 62.86 427.70 65.21   Q 418.02 67.26 410.33 67.64   Q 405.06 67.90 392.94 65.63   Q 379.22 63.06 364.31 58.87   Q 363.08 58.53 358.40 57.56   C 352.82 56.41 348.80 55.57 343.49 54.91   C 323.73 52.47 304.14 51.82 284.74 54.51   C 282.04 54.88 278.79 54.78 276.73 55.11   C 264.65 57.05 251.77 58.68 240.46 60.80   C 227.75 63.19 216.29 64.72 203.70 67.00   Q 194.53 68.66 175.64 71.59   C 173.26 71.96 171.42 72.67 169.36 72.76   Q 167.98 72.82 164.64 73.46   Q 149.79 76.32 140.03 77.87   Q 129.72 79.52 119.12 81.68   Q 103.92 84.78 98.22 85.61   Q 97.06 85.77 94.66 86.30   A 3.12 0.01 -12.4 0 1 91.66 86.95   Q 70.29 90.39 49.17 94.73   C 44.17 95.76 39.36 95.85 34.69 97.38" />
  </g>
  <path fill="#FBFBFC" fill-opacity="0.996" d="   M 34.66 101.28   A 1.93 1.92 10.7 0 1 32.84 98.62   L 33.59 96.83   A 2.99 2.98 -75.9 0 1 36.61 95.02   Q 40.99 95.41 44.55 94.00   C 47.74 92.73 50.67 93.83 53.93 92.09   A 4.55 4.51 -59.6 0 1 55.93 91.56   Q 59.19 91.46 59.90 91.17   Q 62.65 90.04 64.92 89.90   Q 68.39 89.68 70.04 89.28   C 72.88 88.61 74.15 88.21 76.93 88.03   Q 79.56 87.86 82.89 86.81   A 7.82 7.59 31.8 0 1 83.99 86.57   C 89.91 85.78 95.66 85.13 101.54 83.98   Q 104.06 83.49 131.87 77.81   Q 136.44 76.88 139.33 76.69   C 142.69 76.47 145.50 75.36 149.23 74.80   Q 167.28 72.11 180.61 69.55   C 184.04 68.89 187.48 69.10 190.11 68.16   C 193.81 66.85 197.44 67.24 201.21 65.90   A 7.04 7.03 -56.8 0 1 203.02 65.52   Q 207.24 65.22 210.93 64.13   A 8.17 7.72 -54.2 0 1 212.45 63.84   C 217.63 63.36 221.96 62.21 226.48 61.78   C 232.14 61.23 237.76 59.67 243.54 58.86   Q 254.60 57.30 268.89 55.02   C 274.36 54.15 280.19 53.88 285.28 53.14   Q 300.22 50.97 319.75 51.71   C 324.89 51.90 333.68 52.21 340.04 53.18   Q 354.38 55.36 356.99 56.02   Q 381.42 62.26 400.56 65.25   C 404.74 65.90 409.41 66.65 412.51 66.12   Q 416.35 65.46 417.66 65.42   Q 420.54 65.34 422.81 64.72   Q 424.52 64.26 435.29 62.13   Q 441.84 60.84 447.54 58.77   Q 465.24 52.37 470.58 50.35   Q 474.25 48.96 501.13 38.01   C 512.98 33.18 523.79 27.74 535.15 23.22   C 539.88 21.34 547.48 17.50 552.69 15.45   C 556.03 14.13 559.25 13.07 563.21 13.07   C 572.72 13.06 577.45 12.65 584.18 15.87   Q 598.12 22.52 611.58 30.42   C 621.25 36.09 628.34 39.18 638.17 44.51   Q 645.72 48.60 655.50 52.49   C 668.06 57.48 677.66 61.41 690.51 64.72   A 21.28 21.16 -37.7 0 0 695.88 65.39   L 721.68 65.31   A 2.10 1.84 32.1 0 0 722.31 65.21   Q 726.81 63.65 731.47 63.61   C 737.62 63.55 740.37 62.69 746.33 62.74   Q 748.55 62.76 753.13 62.35   Q 760.06 61.73 765.00 62.26   Q 779.81 63.84 784.59 63.75   A 8.14 7.93 51.2 0 1 786.80 64.02   Q 792.05 65.40 793.86 65.38   Q 800.16 65.30 802.67 66.74   A 2.19 2.14 -28.8 0 0 803.64 67.01   L 810.64 67.26   A 6.66 6.61 -34.8 0 1 812.51 67.59   Q 816.57 68.92 821.62 68.99   Q 824.62 69.02 826.78 69.93   C 829.55 71.10 833.25 70.38 836.45 71.51   C 839.10 72.45 843.34 72.31 846.48 73.01   Q 853.15 74.51 860.86 75.12   A 12.78 12.61 54.8 0 1 863.30 75.56   Q 868.27 76.96 871.20 76.87   A 1.68 1.50 52.3 0 1 871.85 76.99   L 875.15 78.37   A 1.48 1.41 51.8 0 0 875.91 78.48   Q 878.39 78.15 884.22 79.81   Q 885.10 80.06 888.82 80.34   A 9.72 9.28 -33.8 0 1 890.66 80.66   C 894.95 81.86 897.91 81.87 902.38 83.02   Q 904.99 83.69 908.21 83.82   A 8.84 8.49 -36.2 0 1 909.92 84.05   C 912.20 84.59 913.68 85.22 916.02 85.35   Q 918.81 85.51 922.69 86.41   C 927.64 87.55 933.99 87.75 938.58 89.06   C 941.55 89.92 944.81 89.63 947.86 90.94   A 5.53 5.51 58.7 0 0 949.61 91.37   L 953.68 91.69   A 3.26 3.23 -26.4 0 1 955.19 92.19   C 957.30 93.53 959.49 93.36 962.93 93.42   A 4.48 4.47 56.7 0 1 964.51 93.75   L 967.29 94.92   A 1.96 1.92 56.2 0 0 968.06 95.08   L 975.75 95.08   A 1.06 1.04 60.2 0 1 976.29 95.23   Q 979.51 97.18 979.62 97.27   A 2.31 2.25 31.5 0 1 980.32 100.04   Q 979.85 101.04 978.32 101.11   Q 975.09 101.25 966.82 101.11   A 11.02 10.80 53.3 0 1 963.76 100.63   L 960.71 99.70   A 6.02 6.00 53.5 0 0 958.93 99.43   Q 948.63 99.41 948.25 99.41   Q 941.93 99.44 939.10 98.20   A 5.23 5.21 -34.1 0 0 936.84 97.77   Q 930.86 97.94 926.20 96.53   A 10.56 9.99 -33.6 0 0 923.90 96.13   Q 904.10 94.97 885.56 92.22   C 880.09 91.41 875.00 91.27 869.15 89.94   A 1.21 1.08 48.3 0 0 868.89 89.91   L 862.45 89.75   A 5.57 5.55 -35.2 0 1 860.87 89.48   Q 856.31 87.99 853.12 88.09   Q 849.76 88.20 847.60 87.31   Q 845.57 86.48 840.27 86.37   Q 836.53 86.28 833.01 85.48   Q 829.36 84.65 821.33 84.20   A 6.74 6.42 -33.0 0 1 819.68 83.89   C 815.27 82.46 809.76 83.40 805.80 82.36   Q 804.05 81.90 799.12 81.93   A 12.25 12.00 51.9 0 1 795.85 81.50   Q 790.54 80.04 783.73 80.12   A 10.06 9.83 49.0 0 1 781.90 79.97   Q 768.44 77.59 753.24 78.87   Q 742.90 79.74 735.64 80.63   C 733.69 80.87 732.01 81.41 730.24 81.68   Q 726.30 82.28 711.51 84.06   Q 705.02 84.84 700.03 84.36   Q 695.14 83.89 686.12 81.89   Q 679.71 80.47 672.65 77.54   Q 646.68 66.78 633.99 59.98   Q 618.77 51.83 599.57 41.16   Q 594.69 38.45 585.47 34.02   C 580.34 31.56 574.45 29.45 568.57 29.57   Q 557.61 29.79 548.77 33.77   Q 531.77 41.42 523.15 44.71   C 515.26 47.71 506.97 52.23 500.13 54.89   Q 485.86 60.44 474.96 65.24   C 465.35 69.46 458.01 71.63 448.43 75.56   C 437.09 80.20 425.68 82.79 412.89 84.25   A 15.64 15.57 46.1 0 1 408.62 84.16   Q 404.54 83.52 398.94 83.01   C 394.07 82.57 390.72 81.39 385.95 80.47   Q 384.12 80.11 380.82 79.15   Q 361.94 73.66 355.28 72.46   Q 344.41 70.49 343.01 70.22   Q 336.61 68.95 332.91 68.80   Q 332.45 68.79 322.75 67.73   Q 320.11 67.44 311.76 67.78   Q 287.68 68.74 262.26 72.23   Q 234.52 76.03 213.89 79.41   Q 201.49 81.44 185.69 83.32   Q 179.33 84.07 157.48 87.09   Q 148.22 88.37 139.31 89.70   C 122.88 92.15 103.59 93.88 90.17 95.65   C 86.41 96.14 82.01 95.91 78.05 97.29   A 5.55 5.38 34.2 0 1 76.29 97.60   Q 71.04 97.69 66.02 97.73   Q 65.07 97.74 61.58 99.00   A 6.07 6.05 34.4 0 1 59.64 99.36   L 48.82 99.48   A 2.19 2.10 -54.3 0 0 48.06 99.62   L 44.10 101.06   A 1.14 0.94 -50.7 0 1 43.90 101.10   L 34.66 101.28   Z   M 34.69 97.38   A 1.27 1.27 0.0 0 0 34.97 99.86   Q 37.28 100.08 39.25 99.78   Q 49.50 98.23 61.33 97.46   C 68.59 96.99 74.37 95.93 81.97 95.37   C 84.26 95.21 86.61 94.64 89.01 94.37   Q 114.14 91.48 131.84 89.63   C 136.74 89.12 142.37 87.60 147.93 87.34   C 152.29 87.13 155.44 86.17 159.13 85.93   Q 161.97 85.74 167.47 84.55   Q 170.38 83.91 174.82 83.59   Q 174.86 83.59 182.16 82.63   Q 192.69 81.25 205.54 79.37   Q 208.58 78.92 211.42 78.35   Q 214.41 77.75 217.34 77.41   Q 221.42 76.94 244.39 73.76   Q 250.18 72.95 255.19 72.19   Q 274.39 69.27 296.28 67.22   C 301.84 66.69 306.83 66.97 311.72 66.57   Q 317.72 66.09 323.28 66.49   Q 337.30 67.49 348.98 69.89   C 356.10 71.35 368.25 74.08 379.44 77.26   Q 392.77 81.05 401.46 82.28   Q 412.47 83.84 424.31 81.32   Q 436.41 78.75 445.43 75.38   C 456.77 71.14 464.95 68.38 474.42 64.20   Q 482.67 60.56 490.49 57.48   C 501.47 53.16 515.42 46.50 524.94 42.68   Q 536.56 38.00 545.64 33.87   Q 552.79 30.60 557.75 29.44   Q 565.15 27.71 570.52 28.03   Q 577.62 28.46 585.95 32.90   Q 592.47 36.38 594.83 37.38   Q 600.20 39.69 607.44 44.03   C 615.88 49.08 627.12 54.80 633.50 58.20   Q 647.54 65.69 666.90 73.83   Q 679.60 79.18 691.32 81.67   C 698.49 83.19 707.15 83.26 713.99 82.39   C 719.39 81.70 723.31 81.38 727.95 80.60   C 740.72 78.45 754.29 76.88 766.52 77.42   Q 784.22 78.21 801.12 80.37   Q 813.86 82.00 818.58 82.43   Q 825.67 83.06 829.94 83.66   Q 836.83 84.63 841.31 85.06   A 4.59 4.44 -32.0 0 1 842.34 85.28   Q 843.68 85.73 844.03 85.73   C 848.64 85.80 853.20 87.03 857.77 87.54   Q 879.23 89.91 886.74 91.11   Q 898.48 92.98 903.86 92.98   A 5.81 5.68 -36.6 0 1 905.54 93.21   C 909.04 94.21 913.49 93.87 917.41 94.39   Q 927.59 95.74 933.54 96.35   Q 934.74 96.47 935.97 96.67   Q 942.72 97.76 947.69 97.79   Q 950.45 97.80 952.16 98.15   C 955.82 98.90 959.40 98.46 963.34 99.01   Q 970.24 99.97 977.42 100.18   A 1.42 1.42 0.0 0 0 978.85 99.02   L 978.87 98.93   A 1.29 1.29 0.0 0 0 977.82 97.43   C 970.72 96.20 963.90 95.33 956.58 93.87   Q 950.36 92.63 928.83 88.82   Q 897.94 83.37 867.13 77.86   Q 859.56 76.50 848.51 74.90   Q 843.89 74.23 834.72 72.61   C 828.32 71.48 822.71 70.88 817.22 69.89   Q 812.17 68.97 782.59 65.23   C 776.82 64.49 769.97 64.18 766.17 63.90   C 758.70 63.36 751.93 64.16 744.53 64.17   Q 741.23 64.17 735.26 64.87   Q 720.14 66.63 712.78 67.16   Q 700.16 68.07 691.23 66.28   C 679.86 63.99 665.89 58.04 653.49 52.87   Q 646.74 50.05 641.53 47.45   Q 621.80 37.61 616.91 34.82   Q 598.80 24.50 588.97 19.51   Q 581.75 15.84 577.15 15.13   Q 568.49 13.80 560.64 14.80   Q 554.99 15.53 541.17 21.80   Q 538.66 22.93 509.15 36.05   C 500.41 39.93 491.31 43.16 483.49 46.53   Q 475.00 50.19 464.34 54.02   Q 445.38 60.81 444.94 60.95   Q 438.83 62.86 427.70 65.21   Q 418.02 67.26 410.33 67.64   Q 405.06 67.90 392.94 65.63   Q 379.22 63.06 364.31 58.87   Q 363.08 58.53 358.40 57.56   C 352.82 56.41 348.80 55.57 343.49 54.91   C 323.73 52.47 304.14 51.82 284.74 54.51   C 282.04 54.88 278.79 54.78 276.73 55.11   C 264.65 57.05 251.77 58.68 240.46 60.80   C 227.75 63.19 216.29 64.72 203.70 67.00   Q 194.53 68.66 175.64 71.59   C 173.26 71.96 171.42 72.67 169.36 72.76   Q 167.98 72.82 164.64 73.46   Q 149.79 76.32 140.03 77.87   Q 129.72 79.52 119.12 81.68   Q 103.92 84.78 98.22 85.61   Q 97.06 85.77 94.66 86.30   A 3.12 0.01 -12.4 0 1 91.66 86.95   Q 70.29 90.39 49.17 94.73   C 44.17 95.76 39.36 95.85 34.69 97.38   Z" />
  <path fill="#10131A" d="   M 34.69 97.38   C 39.36 95.85 44.17 95.76 49.17 94.73   Q 70.29 90.39 91.66 86.95   A 3.12 0.01 -12.4 0 0 94.66 86.30   Q 97.06 85.77 98.22 85.61   Q 103.92 84.78 119.12 81.68   Q 129.72 79.52 140.03 77.87   Q 149.79 76.32 164.64 73.46   Q 167.98 72.82 169.36 72.76   C 171.42 72.67 173.26 71.96 175.64 71.59   Q 194.53 68.66 203.70 67.00   C 216.29 64.72 227.75 63.19 240.46 60.80   C 251.77 58.68 264.65 57.05 276.73 55.11   C 278.79 54.78 282.04 54.88 284.74 54.51   C 304.14 51.82 323.73 52.47 343.49 54.91   C 348.80 55.57 352.82 56.41 358.40 57.56   Q 363.08 58.53 364.31 58.87   Q 379.22 63.06 392.94 65.63   Q 405.06 67.90 410.33 67.64   Q 418.02 67.26 427.70 65.21   Q 438.83 62.86 444.94 60.95   Q 445.38 60.81 464.34 54.02   Q 475.00 50.19 483.49 46.53   C 491.31 43.16 500.41 39.93 509.15 36.05   Q 538.66 22.93 541.17 21.80   Q 554.99 15.53 560.64 14.80   Q 568.49 13.80 577.15 15.13   Q 581.75 15.84 588.97 19.51   Q 598.80 24.50 616.91 34.82   Q 621.80 37.61 641.53 47.45   Q 646.74 50.05 653.49 52.87   C 665.89 58.04 679.86 63.99 691.23 66.28   Q 700.16 68.07 712.78 67.16   Q 720.14 66.63 735.26 64.87   Q 741.23 64.17 744.53 64.17   C 751.93 64.16 758.70 63.36 766.17 63.90   C 769.97 64.18 776.82 64.49 782.59 65.23   Q 812.17 68.97 817.22 69.89   C 822.71 70.88 828.32 71.48 834.72 72.61   Q 843.89 74.23 848.51 74.90   Q 859.56 76.50 867.13 77.86   Q 897.94 83.37 928.83 88.82   Q 950.36 92.63 956.58 93.87   C 963.90 95.33 970.72 96.20 977.82 97.43   A 1.29 1.29 0.0 0 1 978.87 98.93   L 978.85 99.02   A 1.42 1.42 0.0 0 1 977.42 100.18   Q 970.24 99.97 963.34 99.01   C 959.40 98.46 955.82 98.90 952.16 98.15   Q 950.45 97.80 947.69 97.79   Q 942.72 97.76 935.97 96.67   Q 934.74 96.47 933.54 96.35   Q 927.59 95.74 917.41 94.39   C 913.49 93.87 909.04 94.21 905.54 93.21   A 5.81 5.68 -36.6 0 0 903.86 92.98   Q 898.48 92.98 886.74 91.11   Q 879.23 89.91 857.77 87.54   C 853.20 87.03 848.64 85.80 844.03 85.73   Q 843.68 85.73 842.34 85.28   A 4.59 4.44 -32.0 0 0 841.31 85.06   Q 836.83 84.63 829.94 83.66   Q 825.67 83.06 818.58 82.43   Q 813.86 82.00 801.12 80.37   Q 784.22 78.21 766.52 77.42   C 754.29 76.88 740.72 78.45 727.95 80.60   C 723.31 81.38 719.39 81.70 713.99 82.39   C 707.15 83.26 698.49 83.19 691.32 81.67   Q 679.60 79.18 666.90 73.83   Q 647.54 65.69 633.50 58.20   C 627.12 54.80 615.88 49.08 607.44 44.03   Q 600.20 39.69 594.83 37.38   Q 592.47 36.38 585.95 32.90   Q 577.62 28.46 570.52 28.03   Q 565.15 27.71 557.75 29.44   Q 552.79 30.60 545.64 33.87   Q 536.56 38.00 524.94 42.68   C 515.42 46.50 501.47 53.16 490.49 57.48   Q 482.67 60.56 474.42 64.20   C 464.95 68.38 456.77 71.14 445.43 75.38   Q 436.41 78.75 424.31 81.32   Q 412.47 83.84 401.46 82.28   Q 392.77 81.05 379.44 77.26   C 368.25 74.08 356.10 71.35 348.98 69.89   Q 337.30 67.49 323.28 66.49   Q 317.72 66.09 311.72 66.57   C 306.83 66.97 301.84 66.69 296.28 67.22   Q 274.39 69.27 255.19 72.19   Q 250.18 72.95 244.39 73.76   Q 221.42 76.94 217.34 77.41   Q 214.41 77.75 211.42 78.35   Q 208.58 78.92 205.54 79.37   Q 192.69 81.25 182.16 82.63   Q 174.86 83.59 174.82 83.59   Q 170.38 83.91 167.47 84.55   Q 161.97 85.74 159.13 85.93   C 155.44 86.17 152.29 87.13 147.93 87.34   C 142.37 87.60 136.74 89.12 131.84 89.63   Q 114.14 91.48 89.01 94.37   C 86.61 94.64 84.26 95.21 81.97 95.37   C 74.37 95.93 68.59 96.99 61.33 97.46   Q 49.50 98.23 39.25 99.78   Q 37.28 100.08 34.97 99.86   A 1.27 1.27 0.0 0 1 34.69 97.38   Z" />
  <path fill="#10131A" d="M83.10754065620543 127.71111840228245V138.29991155492155H65.6781997146933V193.118H52.55934094151213V138.29991155492155H35.13V127.71111840228245Z M186.59585164051356 127.71111840228245V193.118H173.4769928673324V165.28727817403708H145.45885877318116V193.118H132.34V127.71111840228245H145.45885877318116V154.60477888730384H173.4769928673324V127.71111840228245Z M249.39885877318116 127.71111840228245V193.118H236.28V127.71111840228245Z M328.5642082738944 193.118 314.13346362339513 167.62993152639086H307.94885877318114V193.118H294.83V127.71111840228245H319.3810071326676Q326.97120399429383 127.71111840228245 332.3124536376605 130.38174322396577Q337.6537032810271 133.05236804564908 340.3243281027104 137.5971155492154Q342.9949529243937 142.14186305278173 342.9949529243937 147.7642310984308Q342.9949529243937 154.22995435092724 339.24670756062767 159.43064479315262Q335.4984621968616 164.63133523537803 328.09567760342367 166.59916405135522L343.7446019971469 193.118ZM307.94885877318114 157.790787446505H318.9124764621968Q324.25372610556343 157.790787446505 326.8774978601997 155.21386875891585Q329.5012696148359 152.63695007132668 329.5012696148359 148.04534950071326Q329.5012696148359 143.547455064194 326.8774978601997 141.064242510699Q324.25372610556343 138.58102995720398 318.9124764621968 138.58102995720398H307.94885877318114Z M448.8481540656205 160.50826533523536Q448.8481540656205 170.34740941512126 444.58452496433665 177.70334094151212Q440.3208958630528 185.05927246790299 432.49643366619114 189.0886362339515Q424.6719714693295 193.118 414.36429671897287 193.118H391.5V127.71111840228245H414.36429671897287Q424.6719714693295 127.71111840228245 432.49643366619114 131.74048216833094Q440.3208958630528 135.76984593437945 444.58452496433665 143.21948359486447Q448.8481540656205 150.6691212553495 448.8481540656205 160.50826533523536ZM435.4481768901569 160.50826533523536Q435.4481768901569 150.2942967189729 429.82580884450783 144.53136947218258Q424.20344079885876 138.76844222539228 413.89576604850214 138.76844222539228H404.61885877318116V181.966970042796H413.89576604850214Q424.20344079885876 181.966970042796 429.82580884450783 176.34460199714692Q435.4481768901569 170.72223395149786 435.4481768901569 160.50826533523536Z M619.7675406562054 127.71111840228245V138.29991155492155H602.3381997146932V193.118H589.2193409415121V138.29991155492155H571.79V127.71111840228245Z M703.3642082738944 193.118 688.9334636233951 167.62993152639086H682.7488587731812V193.118H669.63V127.71111840228245H694.1810071326676Q701.7712039942938 127.71111840228245 707.1124536376605 130.38174322396577Q712.4537032810271 133.05236804564908 715.1243281027104 137.5971155492154Q717.7949529243937 142.14186305278173 717.7949529243937 147.7642310984308Q717.7949529243937 154.22995435092724 714.0467075606276 159.43064479315262Q710.2984621968616 164.63133523537803 702.8956776034237 166.59916405135522L718.5446019971469 193.118ZM682.7488587731812 157.790787446505H693.7124764621968Q699.0537261055634 157.790787446505 701.6774978601998 155.21386875891585Q704.301269614836 152.63695007132668 704.301269614836 148.04534950071326Q704.301269614836 143.547455064194 701.6774978601998 141.064242510699Q699.0537261055634 138.58102995720398 693.7124764621968 138.58102995720398H682.7488587731812Z M808.2655891583452 180.6550841654779H782.2152838801712L777.9048017118403 193.118H764.13L787.6502396576319 127.6174122681883H802.9243395149786L826.4445791726106 193.118H812.5760713266761ZM804.7047560627675 170.15999714693294 795.2404365192582 142.79780599144078 785.7761169757489 170.15999714693294Z M891.9688587731812 127.71111840228245V193.118H878.85V127.71111840228245Z M949.2388587731812 182.7166191155492H970.791269614836V193.118H936.12V127.71111840228245H949.2388587731812Z" />
</svg>